<svg id="Layer_1" data-name="Layer 1" xmlns="http://www.w3.org/2000/svg" xmlns:xlink="http://www.w3.org/1999/xlink" viewBox="0 0 281.71 117.23"><defs><style>.cls-1{fill:none;}.cls-2,.cls-7{fill:#c6dd7f;}.cls-2,.cls-3,.cls-4{mix-blend-mode:multiply;}.cls-3,.cls-5{fill:#e9ddb7;}.cls-4,.cls-6{fill:#a6d0e4;}.cls-8{fill:#fff;}.cls-8,.cls-9{stroke-miterlimit:10;stroke:url(#Alyssa);}</style><pattern id="Alyssa" data-name="Alyssa" width="144.13" height="138.36" patternUnits="userSpaceOnUse" viewBox="0 0 144.13 138.36"><rect class="cls-1" width="144.13" height="138.36"/><path class="cls-2" d="M211.07,158.52c-11.76-1.38-19.37.35-22.65,3.11-3,2.55-5,5.41-2.25,11.94,2.94,7.09,1.53,14.73-5.53,15.91-6.23,1-10.9-4.85-11.24-12.28-.24-5.18-1.91-8.3-5.54-7.61s-4.63,5.9-3.63,11.76c1.38,8.13,5.53,11.76,6.23,20.23.49,6.06-2.94,13.66-12.46,15-9.3,1.35-15.91-4.33-16.6-10.55-.73-6.59,3.63-10.9,3.11-17.64s-4-10.17-5.87-17.29c-2.77-10.55,1.21-19,7.78-22.66,14.74-8.15,22.83,3.64,36,1.56,10.89-1.73,23.35-18.16,33-19.54,8.23-1.18,13.83,4.66,15,14S221.72,159.78,211.07,158.52Zm-42.19.52a4.15,4.15,0,1,0-4.15,4.15A4.15,4.15,0,0,0,168.88,159Zm49.46-15.39a1.73,1.73,0,1,0-1.73,1.73A1.73,1.73,0,0,0,218.34,143.65Z"/><path class="cls-3" d="M48.83,139.33c0,7.17,4.59,13.82-1,16.34-8.5,3.83-28-14.34-28-36.17,0-12,8.67-19,17.84-19,12.33,0,18,8.17,18,17.5S48.83,131.14,48.83,139.33ZM43.42,134A2.08,2.08,0,1,0,41.35,136,2.07,2.07,0,0,0,43.42,134Z"/><path class="cls-4" d="M123.53,162.83c-7.87,2.74-19.44-15.3-17.67-27,1.24-8.23,7.12-13.19,13.09-14.22,7.52-1.29,12.9,2.6,13.3,7.25.54,6.3-3.63,7.51-4.22,14.95C127.46,150.93,131.72,160,123.53,162.83Zm-3.79-27.51a2.6,2.6,0,1,0-2.59,2.59A2.59,2.59,0,0,0,119.74,135.32Z"/><path class="cls-3" d="M19.39,140.36a2.6,2.6,0,1,1-2.6-2.59A2.59,2.59,0,0,1,19.39,140.36Z"/><path class="cls-4" d="M84.61,132.64c.74,8.1,12.67,7,17.9,14.21,10.52,14.48-1.22,46.37-21.63,46.37-11.74,0-24.21-9.72-24.21-29.22,0-15.83,10.16-21.5,8.25-42.17-1-10.83-12.5-20.34-12.5-34.75C52.42,81.16,56,73.64,64,73.64c7,0,10.82,6,10.82,12.9,0,6.79-5.38,15.74,1.38,19,5.24,2.57,13.21-4.77,19.5-6.75,5.19-1.63,12.38.23,14.75,8.5,2.53,8.88-3.26,14.75-11.6,16.7C92.51,125.5,84,126.2,84.61,132.64Zm-16-30.56a3.29,3.29,0,1,0-3.29,3.29A3.3,3.3,0,0,0,68.63,102.08Zm26,9.7a2.33,2.33,0,1,0-2.33-2.33A2.34,2.34,0,0,0,94.61,111.78Zm-20,59.67a3.29,3.29,0,1,0-3.29,3.28A3.29,3.29,0,0,0,74.63,171.45Z"/><path class="cls-2" d="M66.94,158.52c-11.76-1.38-19.37.35-22.65,3.11-3,2.55-5,5.41-2.25,11.94,2.94,7.09,1.53,14.73-5.53,15.91-6.23,1-10.9-4.85-11.24-12.28-.24-5.18-1.91-8.3-5.54-7.61s-4.63,5.9-3.63,11.76c1.38,8.13,5.54,11.76,6.23,20.23.49,6.06-2.94,13.66-12.45,15C.57,218-6,212.3-6.73,206.08c-.73-6.59,3.63-10.9,3.12-17.64s-4-10.17-5.88-17.29c-2.77-10.55,1.21-19,7.78-22.66,14.74-8.15,22.83,3.64,36,1.56,10.89-1.73,23.35-18.16,33-19.54,8.23-1.18,13.83,4.66,15,14S77.59,159.78,66.94,158.52ZM24.75,159a4.15,4.15,0,1,0-4.15,4.15A4.15,4.15,0,0,0,24.75,159Zm49.46-15.39a1.73,1.73,0,1,0-1.73,1.73A1.73,1.73,0,0,0,74.21,143.65Z"/><path class="cls-4" d="M190.32,112c0,6.22-4.15,10.72-8.65,11.58s-8.31-1.28-13,1.21c-4.84,2.6-7.09,11.07-16.77,11.07-8,0-15.22-7.95-15.22-18.85,0-20.23,13.14-29.22,25.6-29.22C178.91,87.78,190.32,100.4,190.32,112ZM170.61,97.63a3.81,3.81,0,1,0-3.81,3.81A3.81,3.81,0,0,0,170.61,97.63Z"/><path class="cls-2" d="M211.07,20.16c-11.76-1.38-19.37.34-22.65,3.11-3,2.55-5,5.41-2.25,11.93,2.94,7.09,1.53,14.74-5.53,15.91-6.23,1-10.9-4.84-11.24-12.27-.24-5.19-1.91-8.3-5.54-7.61s-4.63,5.9-3.63,11.76c1.38,8.12,5.53,11.76,6.23,20.23.49,6-2.94,13.66-12.46,15-9.3,1.36-15.91-4.32-16.6-10.54-.73-6.59,3.63-10.9,3.11-17.64s-4-10.17-5.87-17.3c-2.77-10.55,1.21-19,7.78-22.65,14.74-8.15,22.83,3.64,36,1.55,10.89-1.72,23.35-18.15,33-19.54,8.23-1.17,13.83,4.67,15,14S221.72,21.41,211.07,20.16Zm-42.19.52a4.15,4.15,0,1,0-4.15,4.15A4.15,4.15,0,0,0,168.88,20.68ZM218.34,5.29A1.73,1.73,0,1,0,216.61,7,1.73,1.73,0,0,0,218.34,5.29Z"/><path class="cls-4" d="M31.83,83.64c-13.95,2-21.16-13.33-17.66-20.33,3.66-7.34,12.12-4.17,19.5-4.17,9.66,0,16.36-7.57,20.41-2.25C58.33,62.47,49.07,81.18,31.83,83.64Zm.53-17.48a2.25,2.25,0,1,0-2.25,2.25A2.25,2.25,0,0,0,32.36,66.16Z"/><path class="cls-3" d="M48.83,1c0,7.17,4.59,13.82-1,16.33-8.5,3.84-28-14.33-28-36.16,0-12,8.67-19,17.84-19,12.33,0,18,8.16,18,17.5S48.83-7.22,48.83,1ZM43.42-4.4a2.07,2.07,0,0,0-2.07-2.07A2.08,2.08,0,0,0,39.27-4.4a2.08,2.08,0,0,0,2.08,2.08A2.08,2.08,0,0,0,43.42-4.4Z"/><path class="cls-4" d="M46.19,112c0,6.22-4.15,10.72-8.64,11.58s-8.32-1.28-13,1.21c-4.84,2.6-7.09,11.07-16.77,11.07-8,0-15.22-7.95-15.22-18.85,0-20.23,13.15-29.22,25.6-29.22C34.78,87.78,46.19,100.4,46.19,112ZM26.48,97.63a3.81,3.81,0,1,0-3.81,3.81A3.81,3.81,0,0,0,26.48,97.63Z"/><path class="cls-2" d="M45.5,88.3a2.42,2.42,0,1,1-2.42-2.43A2.42,2.42,0,0,1,45.5,88.3Z"/><path class="cls-4" d="M129.2,69.79c-3.19,4.68,1,10.72-1.38,15.22s-6.75,5-9.86,2.59c-3.64-2.82-3.41-6.64-8.3-8.82-5.53-2.46-18,2.25-19.72-7.26-.87-4.81,2.38-8.57,7.27-9.68,6.05-1.39,9.35-.18,15.39-3.12s11.24-9,22.13-12.1c10.41-3,16.08,1.55,16.61,5.88C152.37,61,134.21,62.45,129.2,69.79ZM127,62.35a2.25,2.25,0,1,0-2.25,2.25A2.24,2.24,0,0,0,127,62.35Z"/><path class="cls-3" d="M156.17,109c0,17.17-14.5,25.5-27,22.83-10.27-2.19-12.84-17.33-16.67-26.16-3.71-8.56-8.83-22.5-20.17-22.5-11.19,0-12.83,14.5-23.66,14.5-11,0-24.5-15.67-24.5-39.67C44.17,43.3,54,26.52,65,27.3,76.67,28.14,69.5,47,80.33,47c9.5,0,7.86-16.26,9.17-23.33,1.67-9,6.83-14.17,18.5-13.17,14.44,1.24,22.33,13.5,18.87,23.35-4,11.45-23.87,17.32-21.54,30.49,1.35,7.59,13,12,26,16.16C145.86,85.13,156.17,91.8,156.17,109Zm-45-75.84a3.29,3.29,0,1,0,3.29-3.29A3.29,3.29,0,0,0,111.21,33.13ZM64.52,58a1.73,1.73,0,1,0-1.73,1.73A1.73,1.73,0,0,0,64.52,58ZM82,68.75a3.81,3.81,0,1,0-3.81,3.81A3.8,3.8,0,0,0,82,68.75Zm19.89-15.56a1.56,1.56,0,1,0-1.56,1.56A1.56,1.56,0,0,0,101.88,53.19Zm29.64,54.69a3.18,3.18,0,1,0-3.17,3.18A3.17,3.17,0,0,0,131.52,107.88Z"/><path class="cls-4" d="M123.53,24.47c-7.87,2.73-19.44-15.3-17.67-27C107.1-10.78,113-15.74,119-16.77c7.52-1.3,12.9,2.6,13.3,7.24.54,6.31-3.63,7.52-4.22,15C127.46,12.57,131.72,21.62,123.53,24.47ZM119.74-3a2.59,2.59,0,0,0-2.59-2.6,2.59,2.59,0,0,0-2.6,2.6,2.59,2.59,0,0,0,2.6,2.59A2.59,2.59,0,0,0,119.74-3Z"/><path class="cls-3" d="M19.39,2a2.6,2.6,0,1,1-2.6-2.59A2.59,2.59,0,0,1,19.39,2Z"/><path class="cls-3" d="M153.38,88.74c0-8.41-5.07-15.23-11.34-15.23s-11.33,6.82-11.33,15.23,5.07,12.44,11.33,12.44S153.38,97.15,153.38,88.74Z"/><path class="cls-4" d="M84.61-5.72c.74,8.1,12.67,7,17.9,14.21C113,23,101.29,54.86,80.88,54.86c-11.74,0-24.21-9.72-24.21-29.22,0-15.84,10.16-21.5,8.25-42.17-1-10.83-12.5-20.34-12.5-34.75C52.42-57.2,56-64.73,64-64.73c7,0,10.82,6,10.82,12.9s-5.38,15.75,1.38,19c5.24,2.57,13.21-4.77,19.5-6.75,5.19-1.63,12.38.23,14.75,8.5,2.53,8.88-3.26,14.75-11.6,16.7C92.51-12.86,84-12.16,84.61-5.72Zm-16-30.56a3.29,3.29,0,0,0-3.29-3.29,3.29,3.29,0,0,0-3.29,3.29A3.29,3.29,0,0,0,65.34-33,3.29,3.29,0,0,0,68.63-36.28Zm26,9.69a2.33,2.33,0,0,0,2.33-2.33,2.33,2.33,0,0,0-2.33-2.32,2.32,2.32,0,0,0-2.33,2.32A2.33,2.33,0,0,0,94.61-26.59Zm-20,59.68a3.29,3.29,0,1,0-3.29,3.28A3.29,3.29,0,0,0,74.63,33.09Z"/><path class="cls-2" d="M66.94,20.16c-11.76-1.38-19.37.34-22.65,3.11-3,2.55-5,5.41-2.25,11.93,2.94,7.09,1.53,14.74-5.53,15.91-6.23,1-10.9-4.84-11.24-12.27-.24-5.19-1.91-8.3-5.54-7.61S15.1,37.13,16.1,43c1.38,8.12,5.54,11.76,6.23,20.23.49,6-2.94,13.66-12.45,15C.57,79.62-6,73.94-6.73,67.72c-.73-6.59,3.63-10.9,3.12-17.64s-4-10.17-5.88-17.3c-2.77-10.55,1.21-19,7.78-22.65C13,2,21.12,13.77,34.26,11.68,45.15,10,57.61-6.47,67.29-7.86c8.23-1.17,13.83,4.67,15,14S77.59,21.41,66.94,20.16Zm-42.19.52a4.15,4.15,0,1,0-4.15,4.15A4.15,4.15,0,0,0,24.75,20.68ZM74.21,5.29A1.73,1.73,0,1,0,72.48,7,1.73,1.73,0,0,0,74.21,5.29Z"/><path class="cls-2" d="M130.24,42.47a1.39,1.39,0,1,1-1.39-1.39A1.38,1.38,0,0,1,130.24,42.47Z"/><path class="cls-5" d="M135.77,4.08a2.25,2.25,0,1,1-2.25-2.25A2.25,2.25,0,0,1,135.77,4.08Z"/><path class="cls-6" d="M52.24,27.25A1.21,1.21,0,1,1,51,26,1.21,1.21,0,0,1,52.24,27.25Z"/><path class="cls-6" d="M48.61,95.73a1.38,1.38,0,1,1-1.38-1.38A1.38,1.38,0,0,1,48.61,95.73Z"/><path class="cls-3" d="M133.18,73.77A1.21,1.21,0,1,1,132,72.56,1.21,1.21,0,0,1,133.18,73.77Z"/><path class="cls-7" d="M95.89,91.69a3.41,3.41,0,1,1-3.41-3.4A3.41,3.41,0,0,1,95.89,91.69Z"/><path class="cls-3" d="M100.87,131.55a2.1,2.1,0,1,1-2.1-2.1A2.1,2.1,0,0,1,100.87,131.55Z"/><path class="cls-3" d="M62.07,125.25a1.58,1.58,0,1,1-1.58-1.57A1.58,1.58,0,0,1,62.07,125.25Z"/><circle class="cls-7" cx="133.12" cy="11.21" r="2.62"/><circle class="cls-4" cx="123.15" cy="46.07" r="2.36"/><path class="cls-5" d="M27.72,52.63A2.62,2.62,0,1,1,25.1,50,2.62,2.62,0,0,1,27.72,52.63Z"/><path class="cls-4" d="M22.74,45.55a1.31,1.31,0,1,1-1.31-1.31A1.31,1.31,0,0,1,22.74,45.55Z"/><path class="cls-3" d="M87,97.46a1.58,1.58,0,1,1-1.58-1.57A1.57,1.57,0,0,1,87,97.46Z"/><path class="cls-4" d="M-14.93,69.79c-3.19,4.68,1,10.72-1.38,15.22s-6.75,5-9.86,2.59c-3.64-2.82-3.41-6.64-8.3-8.82-5.53-2.46-18,2.25-19.72-7.26-.87-4.81,2.38-8.57,7.27-9.68,6.05-1.39,9.35-.18,15.39-3.12s11.24-9,22.13-12.1C1,43.64,6.68,48.17,7.21,52.5,8.24,61-9.92,62.45-14.93,69.79Zm-2.25-7.44a2.24,2.24,0,0,0-2.25-2.24,2.24,2.24,0,0,0-2.24,2.24,2.24,2.24,0,0,0,2.24,2.25A2.24,2.24,0,0,0-17.18,62.35Z"/><path class="cls-3" d="M12,109c0,17.17-14.5,25.5-27,22.83-10.27-2.19-12.84-17.33-16.67-26.16-3.71-8.56-8.83-22.5-20.17-22.5s-12.83,14.5-23.66,14.5C-86.46,97.64-100,82-100,58c0-14.67,9.8-31.45,20.83-30.67C-67.46,28.14-74.63,47-63.8,47c9.5,0,7.86-16.26,9.17-23.33,1.67-9,6.83-14.17,18.5-13.17C-21.69,11.71-13.8,24-17.26,33.82c-4,11.45-23.87,17.32-21.54,30.49,1.35,7.59,13,12,26,16.16C1.73,85.13,12,91.8,12,109ZM-32.91,33.13a3.28,3.28,0,0,0,3.28,3.28,3.29,3.29,0,0,0,3.29-3.28,3.29,3.29,0,0,0-3.29-3.29A3.28,3.28,0,0,0-32.91,33.13ZM-79.61,58a1.73,1.73,0,0,0-1.73-1.73A1.74,1.74,0,0,0-83.07,58a1.73,1.73,0,0,0,1.73,1.73A1.72,1.72,0,0,0-79.61,58Zm17.47,10.72A3.8,3.8,0,0,0-65.95,65a3.8,3.8,0,0,0-3.8,3.8,3.81,3.81,0,0,0,3.8,3.81A3.81,3.81,0,0,0-62.14,68.75Zm19.89-15.56a1.56,1.56,0,0,0-1.56-1.56,1.56,1.56,0,0,0-1.56,1.56,1.56,1.56,0,0,0,1.56,1.56A1.56,1.56,0,0,0-42.25,53.19Zm29.64,54.69a3.17,3.17,0,0,0-3.17-3.17A3.17,3.17,0,0,0-19,107.88a3.18,3.18,0,0,0,3.18,3.18A3.17,3.17,0,0,0-12.61,107.88Z"/><path class="cls-3" d="M9.26,88.74c0-8.41-5.08-15.23-11.34-15.23s-11.34,6.82-11.34,15.23,5.07,12.44,11.34,12.44S9.26,97.15,9.26,88.74Z"/></pattern></defs><path class="cls-8" d="M128,147.94h31.45v7.76h6.93v3.73h-20v2.73h1.82v1.55h-1.82v3.92h13.95v5.1h1.81v2.66h-1.81V179H146.44v9.76H141v2.64h5.47v3.93h1.82v1.17h-1.82v2.28H135v-2.28h1.81v-1.17H135v-3.93h-5.47v-2.64H135V163.71h1.81v-1.55H135V155.7H128Z" transform="translate(-127.52 -147.44)"/><path class="cls-8" d="M179.19,160.82v22h-2.47v2.4c0,1.42.74,2.13,2.21,2.13h3.92q2.31,0,2.31-1.77v-2.76h2.49v-8.44h2.13v-5.06h-2.13V156.27h2.13v-.8h-2.13v-1.7h-2.49v-2.93h2.49v-1.6h11.27v1.6h-2.47v2.93h2.47v1.7h2.14v.8h-2.14v13.06h2.14v5.06h-2.14v8.44h-2.47V189h2.47v.1a15.34,15.34,0,0,1-.61,3.73h2v.1c-.1.46-.22.7-.36.7h-1.94c-.1,0-.28.34-.54,1h2a4.4,4.4,0,0,1-1.24,1.52h-2.05q-2.53,2.58-8.44,2.58H179c-4,0-6.78-.86-8.36-2.58h2.06l-1.26-1.52h-2.13a12.74,12.74,0,0,1-1.41-5.6h-2.49v-6.13h2.49v-22Zm-11.27-1.26v-3.29h2.13v-.8h-2.13v-1.7h-2.49v-2.93h2.49v-1.6h11.27v1.6h-2.47v2.93h2.47v1.7h2.14v.8h-2.14v3.29Z" transform="translate(-127.52 -147.44)"/><path class="cls-8" d="M201.5,150.1h35.58v1h2.77V154h-2.77v6.16l-2.69,3.46h2.69a12.26,12.26,0,0,0-.78,1.13h-2.78a24.85,24.85,0,0,0-1.89,2.34h-3c-.26.19-1.67,2-4.24,5.28h3v.08q-9.69,12.28-9.78,12.3h-3.12a2.46,2.46,0,0,1-.52.78h3a19.39,19.39,0,0,1-1.39,1.82h21.13c.11,0,.17.07.17.16v6.94h2.78v3.64c0,.11-.06.17-.18.17H216v-3.81h-2.78v3.81H201.5c-.13,0-.19-.06-.19-.17v-10a9.26,9.26,0,0,1,1.82-2.51v-.09h-3a2.46,2.46,0,0,0,.52-.78h3.12q.16-.09,9.78-12.3v-.08h-3q4-5.12,4.25-5.28h3.12a14,14,0,0,1,1.82-2.34h2.67a5.42,5.42,0,0,0,.87-1v-.09h-2.69l2.08-2.68H201.5V154h2.76v-2.85H201.5Z" transform="translate(-127.52 -147.44)"/><path class="cls-8" d="M240.24,152.35H274v1h2.62V156H274v5.84l-2.55,3.27H274a10.37,10.37,0,0,0-.74,1.07h-2.63a22.19,22.19,0,0,0-1.79,2.21H265.9q-.36.28-4,5h2.87v.07q-9.18,11.64-9.26,11.66h-3a2.43,2.43,0,0,1-.49.74h2.87a19.15,19.15,0,0,1-1.32,1.72h20c.1,0,.16.06.16.16v6.57h2.63v3.45c0,.1-.05.16-.17.16H254v-3.61h-2.64V198H240.24c-.12,0-.18-.06-.18-.16v-9.44a8.79,8.79,0,0,1,1.73-2.38v-.08h-2.87a2.43,2.43,0,0,0,.49-.74h3q.15-.09,9.26-11.66v-.07h-2.87c2.52-3.23,3.87-4.9,4-5h3a14.54,14.54,0,0,1,1.72-2.21H260a5.31,5.31,0,0,0,.82-1v-.08h-2.55l2-2.53h-20V156h2.62v-2.71h-2.62Z" transform="translate(-127.52 -147.44)"/><path class="cls-8" d="M142.15,224v22.58h-2.54V249a2,2,0,0,0,2.26,2.19h4c1.57,0,2.36-.6,2.36-1.82v-2.83h2.56v-8.65H153v-5.19h-2.18v-13.4H153v-.82h-2.18v-1.74h-2.56v-3h2.56v-1.64h11.56v1.64h-2.54v3h2.54v1.74h2.19v.82h-2.19v13.4h2.19v5.19h-2.19v8.65h-2.54v6.29h2.54v.1a15.86,15.86,0,0,1-.63,3.83h2.09v.09c-.1.49-.22.73-.37.73h-2c-.1,0-.29.34-.55,1H163a4.42,4.42,0,0,1-1.27,1.57h-2.1c-1.74,1.75-4.62,2.63-8.66,2.63h-9q-6.15,0-8.57-2.63h2.1l-1.28-1.57H132a13,13,0,0,1-1.45-5.74H128v-6.29h2.56V224Zm-11.57-1.28v-3.38h2.19v-.82h-2.19v-1.74H128v-3h2.56v-1.64h11.57v1.64h-2.54v3h2.54v1.74h2.18v.82h-2.18v3.38Z" transform="translate(-127.52 -147.44)"/><path class="cls-8" d="M188.69,258.88l-.86-1.72h1.37v-.1a3.39,3.39,0,0,1-.36-.72h-1.56l-3.83-7.58h-1.81c-.12,0-.33-.39-.65-1.17h1.74v-.1q-5.58-10.61-5.84-11.21h-.08v4h1.45v4.1h-1.45v3.21H175v1.17h1.83v7.58h1.45v.82h-1.45v5.47h-11.4v-5.47h1.46v-.82h-1.46v-7.58h-1.82v-1.17h1.82v-3.21h1.46v-4.1h-1.46V217H164v-5.47h11.49a52,52,0,0,0,2.91,5.47h1.27q.81,1.29,2.73,5.12.21.27.27.27h1.29q.11,0,3.19,5.92h-1.47c2.61,5,4.15,8,4.65,9h.1v-9h1.46v-5.92h-1.46V217h-1.47v-5.47h11.41V217h1.44v5.39h1.47v5.92h-1.47v28h1.47v.82h-1.47v1.72Zm-14.61-36.45v5.92h1.44v-5.92Zm29.16,36.84v1.52h-1.47v1.84h-11a21.54,21.54,0,0,1-1.88-3.36Z" transform="translate(-127.52 -147.44)"/><path class="cls-8" d="M202.26,220.42v-5.29h2.56v-3.28h11.39v3.28h-2.56v5.29Zm14,1.09v8.93h2.19V236h-2.19v4.64h-2.56V251h2.56v7.58h-2.56v1.17h2.56v3H204.82v-3h-2.56v-1.17h2.56V251h-2.56v-10.3h2.56V228.72h-2.56v-1.19h2.56v-6Zm-6.84,8.93V236h2.19v-5.57Z" transform="translate(-127.52 -147.44)"/><path class="cls-8" d="M217.59,211.94h11.68c.16,0,.55,1.1,1.18,3.29h2.83c.14,0,.29.39.45,1.19h-2.81v.07l1.91,6h-2.11v.1l1.37,4.37h2.28l1.47,4.65h2.81a11.06,11.06,0,0,1,1,2.64h-2.93l3,9.39h.1l3-9.39h3a25.77,25.77,0,0,1,.82-2.64h-2.91q1.44-4.42,1.44-4.65h-2.09v-.09c.91-2.79,1.37-4.25,1.37-4.38h2.28q3.28-10.56,3.56-10.57H262l.18.1q-6.3,19-6.37,19.59h2.81v.1l-.82,2.54H255c-.15,0-.69,1.61-1.64,4.84-.07,0-1,2.78-2.74,8.2h-2.18l-1.84,5.55h2.19l-1.27,3.93h2.91c-.78,2.37-1.17,3.61-1.17,3.73h-3c-.42,1.52-.69,2.28-.82,2.28H234q-3.18-9.78-3.18-9.94h-2.29l-1.72-5.55h2.09v-.09l-4.2-12.95h2.93a16.45,16.45,0,0,1-.82-2.64h-3L222.34,227h-2.09q-.21,0-1.56-4.47h2.19c-1-2.84-1.63-4.87-2-6.09h2.91a5.23,5.23,0,0,1-.37-1.19h-3c0-.16-.34-1.22-1-3.19ZM249,222.51V227h2.19v-4.47Z" transform="translate(-127.52 -147.44)"/><path class="cls-8" d="M276.87,226.26v2h-1.74v1.56h2.74v1.82h13.94V234h-2.73v4.2h3.65V243H278.79v1.46h-2.46v1.1h2.46v3.28h-3.66v2.56h20v1.64h3.66v.62h-3.66v6.21h2.09v2.91H281.33v-2.91h-2.09v2.91H263.65v-3h-2.46V254.7h2.46v-5.84h3.65v-3.28h-2.46v-1.1h2.46v-6.29h-3.65V234h2.73v-4.18h-2.73v-3.55Zm-13.22-2.6v-3.34h-1.91v-1h1.91v-7.39h31.44v3.29h4.38v3.18h-4.38v.92h-1.91v1h1.91v3.11h-20v.23Zm0,2.15v-1.13h11.48v1.13Zm3.73,28.89v5.09h2.46V254.7Zm11.31-39.47v3.18h4.37v-3.18Z" transform="translate(-127.52 -147.44)"/><path class="cls-8" d="M331.38,215.28a5.06,5.06,0,0,1,.92,1.41h-3.18a10.08,10.08,0,0,1,.72,2.27h3.38a17.54,17.54,0,0,1,.37,3.37V236.1q0,7-5.29,9.3a9.93,9.93,0,0,1-2,.45q5.38,11.11,5.39,11.31h1.91a26.63,26.63,0,0,1,1.17,2.63H333v.1c.55,1.07,1.07,2.16,1.55,3.28H321.91a24,24,0,0,1-1.82-3.38h1.82a18.3,18.3,0,0,0-1.44-2.63h-1.64q-.22-.14-5.47-10.59h-.1v4h1.82V251h-1.82v9H310v3.1H298.77c-.12,0-.18-.06-.18-.19v-2.91h3.28v-9h1.82v-.44h-1.82v-1.92c0-.94,0-2.21-.1-3.83h-3.28V242.2h3.28V219h-3.28v-2.27h3.28v-1.41Zm-27.79-.37v-1.15h-1.82v-1.54q0-.18.18-.18H322c3.46,0,6.05.57,7.75,1.72h1.55c.36,0,.86.38,1.5,1.15Zm4.3,14.53v9.2h1.81v-9.2Zm5.47-5.84v5.84h1.81v6.74h4.38q2.46,0,2.46-2.91v-7.83c0-1.22-1-1.84-3-1.84Z" transform="translate(-127.52 -147.44)"/><path class="cls-8" d="M368.57,235.36a9.49,9.49,0,0,1,1.41,2.83,25.31,25.31,0,0,1,.45,5.2v.72h-3.28v8.3h-1.47l-.08.92V254h1.45q-.18,1.18-.45,2.46h2.09v.09a6.71,6.71,0,0,1-1.82,3.28h-2.19q-.1.49-2,1.74a15,15,0,0,1-7,1.37h-8.92q-8.5,0-10.59-5.47a13,13,0,0,1-.82-3.47h-1.45c-.06-.83-.09-1.34-.09-1.55h1.46v-3.55h-1.46v-1.92h1.46v-1.46h11.56v1.46h-1.44v1.92h1.44v.27c0,1.13.46,1.81,1.37,2a5.13,5.13,0,0,0,1.64.18h2.83c1.89,0,2.84-.61,2.84-1.82V245a1.85,1.85,0,0,0-.28-.92h3.19V244a2.49,2.49,0,0,0-2-.74H349.2q-7.56,0-9.85-5.55a13.23,13.23,0,0,1-.62-2.38Zm-30-2.48v-2.71h-3.28v-7.46a20.1,20.1,0,0,1,.45-4.11H338a7.88,7.88,0,0,1,.89-2.28H336.7q2.39-4.27,10-4.28h8.75q7.59,0,9.92,4,0,.13.27.27h2c.24,0,.57.76,1,2.28H366.6v.08a15.64,15.64,0,0,1,.45,3.65v7h-3.83v-3.91h-1.45v3.91H354v-3.91h1.47v-.1c0-1-.68-1.57-2-1.74h-4.2q-2.46,0-2.46,2.19v4.38h3.38a1.71,1.71,0,0,0,1.92,1.56h7.48a13.66,13.66,0,0,1,6,1.15Zm27.72.37a8.82,8.82,0,0,1,1.62,1.27H338.61c0-.43-.07-.85-.08-1.27Z" transform="translate(-127.52 -147.44)"/><path class="cls-8" d="M385.13,226.26v2H383.4v1.56h2.73v1.82h13.95V234h-2.74v4.2H401V243H387.05v1.46h-2.46v1.1h2.46v3.28H383.4v2.56h20v1.64H407v.62h-3.65v6.21h2.09v2.91H389.59v-2.91H387.5v2.91H371.91v-3h-2.46V254.7h2.46v-5.84h3.65v-3.28H373.1v-1.1h2.46v-6.29h-3.65V234h2.74v-4.18h-2.74v-3.55Zm-13.22-2.6v-3.34H370v-1h1.91v-7.39h31.45v3.29h4.37v3.18h-4.37v.92h-1.92v1h1.92v3.11h-20v.23Zm0,2.15v-1.13H383.4v1.13Zm3.73,28.89v5.09h2.46V254.7ZM387,215.23v3.18h4.38v-3.18Z" transform="translate(-127.52 -147.44)"/><path class="cls-9" d="M129,148.94h31.45v7.76h6.93v3.73h-20v2.73h1.82v1.55h-1.82v3.92h13.95v5.1h1.81v2.66h-1.81V180H147.44v9.76H142v2.64h5.47v3.93h1.82v1.17h-1.82v2.28H136v-2.28h1.81v-1.17H136v-3.93h-5.47v-2.64H136V164.71h1.81v-1.55H136V156.7H129Z" transform="translate(-127.52 -147.44)"/><path class="cls-9" d="M180.19,161.82v22h-2.47v2.4c0,1.42.74,2.13,2.21,2.13h3.92q2.31,0,2.31-1.77v-2.76h2.49v-8.44h2.13v-5.06h-2.13V157.27h2.13v-.8h-2.13v-1.7h-2.49v-2.93h2.49v-1.6h11.27v1.6h-2.47v2.93h2.47v1.7h2.14v.8h-2.14v13.06h2.14v5.06h-2.14v8.44h-2.47V190h2.47v.1a15.34,15.34,0,0,1-.61,3.73h2v.1c-.1.46-.22.7-.36.7h-1.94c-.1,0-.28.34-.54,1h2a4.4,4.4,0,0,1-1.24,1.52h-2.05q-2.53,2.58-8.44,2.58H180c-4,0-6.78-.86-8.36-2.58h2.06l-1.26-1.52h-2.13a12.74,12.74,0,0,1-1.41-5.6h-2.49v-6.13h2.49v-22Zm-11.27-1.26v-3.29h2.13v-.8h-2.13v-1.7h-2.49v-2.93h2.49v-1.6h11.27v1.6h-2.47v2.93h2.47v1.7h2.14v.8h-2.14v3.29Z" transform="translate(-127.52 -147.44)"/><path class="cls-9" d="M202.5,151.1h35.58v1h2.77V155h-2.77v6.16l-2.69,3.46h2.69a12.26,12.26,0,0,0-.78,1.13h-2.78a24.85,24.85,0,0,0-1.89,2.34h-3c-.26.19-1.67,2-4.24,5.28h3v.08q-9.69,12.28-9.78,12.3h-3.12a2.46,2.46,0,0,1-.52.78h3a19.39,19.39,0,0,1-1.39,1.82h21.13c.11,0,.17.07.17.16v6.94h2.78v3.64c0,.11-.06.17-.18.17H217v-3.81h-2.78v3.81H202.5c-.13,0-.19-.06-.19-.17v-10a9.26,9.26,0,0,1,1.82-2.51v-.09h-3a2.46,2.46,0,0,0,.52-.78h3.12q.16-.09,9.78-12.3v-.08h-3q4-5.12,4.25-5.28h3.12a14,14,0,0,1,1.82-2.34h2.67a5.42,5.42,0,0,0,.87-1v-.09h-2.69l2.08-2.68H202.5V155h2.76v-2.85H202.5Z" transform="translate(-127.52 -147.44)"/><path class="cls-9" d="M241.24,153.35H275v1h2.62V157H275v5.84l-2.55,3.27H275a10.37,10.37,0,0,0-.74,1.07h-2.63a22.19,22.19,0,0,0-1.79,2.21H266.9q-.36.28-4,5h2.87v.07q-9.18,11.64-9.26,11.66h-3a2.43,2.43,0,0,1-.49.74h2.87a19.15,19.15,0,0,1-1.32,1.72h20c.1,0,.16.06.16.16v6.57h2.63v3.45c0,.1-.05.16-.17.16H255v-3.61h-2.64V199H241.24c-.12,0-.18-.06-.18-.16v-9.44a8.79,8.79,0,0,1,1.73-2.38v-.08h-2.87a2.43,2.43,0,0,0,.49-.74h3q.15-.09,9.26-11.66v-.07h-2.87c2.52-3.23,3.87-4.9,4-5h3a14.54,14.54,0,0,1,1.72-2.21H261a5.31,5.31,0,0,0,.82-1v-.08h-2.55l2-2.53h-20V157h2.62v-2.71h-2.62Z" transform="translate(-127.52 -147.44)"/><path class="cls-9" d="M143.15,225v22.58h-2.54V250a2,2,0,0,0,2.26,2.19h4c1.57,0,2.36-.6,2.36-1.82v-2.83h2.56v-8.65H154v-5.19h-2.18v-13.4H154v-.82h-2.18v-1.74h-2.56v-3h2.56v-1.64h11.56v1.64h-2.54v3h2.54v1.74h2.19v.82h-2.19v13.4h2.19v5.19h-2.19v8.65h-2.54v6.29h2.54v.1a15.86,15.86,0,0,1-.63,3.83h2.09v.09c-.1.49-.22.73-.37.73h-2c-.1,0-.29.34-.55,1H164a4.42,4.42,0,0,1-1.27,1.57h-2.1c-1.74,1.75-4.62,2.63-8.66,2.63h-9q-6.15,0-8.57-2.63h2.1l-1.28-1.57H133a13,13,0,0,1-1.45-5.74H129v-6.29h2.56V225Zm-11.57-1.28v-3.38h2.19v-.82h-2.19v-1.74H129v-3h2.56v-1.64h11.57v1.64h-2.54v3h2.54v1.74h2.18v.82h-2.18v3.38Z" transform="translate(-127.52 -147.44)"/><path class="cls-9" d="M189.69,259.88l-.86-1.72h1.37v-.1a3.39,3.39,0,0,1-.36-.72h-1.56l-3.83-7.58h-1.81c-.12,0-.33-.39-.65-1.17h1.74v-.1q-5.58-10.61-5.84-11.21h-.08v4h1.45v4.1h-1.45v3.21H176v1.17h1.83v7.58h1.45v.82h-1.45v5.47h-11.4v-5.47h1.46v-.82h-1.46v-7.58h-1.82v-1.17h1.82v-3.21h1.46v-4.1h-1.46V218H165v-5.47h11.49a52,52,0,0,0,2.91,5.47h1.27q.81,1.29,2.73,5.12.21.27.27.27h1.29q.11,0,3.19,5.92h-1.47c2.61,5,4.15,8,4.65,9h.1v-9h1.46v-5.92h-1.46V218h-1.47v-5.47h11.41V218h1.44v5.39h1.47v5.92h-1.47v28h1.47v.82h-1.47v1.72Zm-14.61-36.45v5.92h1.44v-5.92Zm29.16,36.84v1.52h-1.47v1.84h-11a21.54,21.54,0,0,1-1.88-3.36Z" transform="translate(-127.52 -147.44)"/><path class="cls-9" d="M203.26,221.42v-5.29h2.56v-3.28h11.39v3.28h-2.56v5.29Zm14,1.09v8.93h2.19V237h-2.19v4.64h-2.56V252h2.56v7.58h-2.56v1.17h2.56v3H205.82v-3h-2.56v-1.17h2.56V252h-2.56v-10.3h2.56V229.72h-2.56v-1.19h2.56v-6Zm-6.84,8.93V237h2.19v-5.57Z" transform="translate(-127.52 -147.44)"/><path class="cls-9" d="M218.59,212.94h11.68c.16,0,.55,1.1,1.18,3.29h2.83c.14,0,.29.39.45,1.19h-2.81v.07l1.91,6h-2.11v.1l1.37,4.37h2.28l1.47,4.65h2.81a11.06,11.06,0,0,1,1,2.64h-2.93l3,9.39h.1l3-9.39h3a25.77,25.77,0,0,1,.82-2.64h-2.91q1.44-4.42,1.44-4.65h-2.09v-.09c.91-2.79,1.37-4.25,1.37-4.38h2.28q3.28-10.56,3.56-10.57H263l.18.1q-6.3,19-6.37,19.59h2.81v.1l-.82,2.54H256c-.15,0-.69,1.61-1.64,4.84-.07,0-1,2.78-2.74,8.2h-2.18l-1.84,5.55h2.19l-1.27,3.93h2.91c-.78,2.37-1.17,3.61-1.17,3.73h-3c-.42,1.52-.69,2.28-.82,2.28H235q-3.18-9.78-3.18-9.94h-2.29l-1.72-5.55h2.09v-.09l-4.2-12.95h2.93a16.45,16.45,0,0,1-.82-2.64h-3L223.34,228h-2.09q-.21,0-1.56-4.47h2.19c-1-2.84-1.63-4.87-2-6.09h2.91a5.23,5.23,0,0,1-.37-1.19h-3c0-.16-.34-1.22-1-3.19ZM250,223.51V228h2.19v-4.47Z" transform="translate(-127.52 -147.44)"/><path class="cls-9" d="M277.87,227.26v2h-1.74v1.56h2.74v1.82h13.94V235h-2.73v4.2h3.65V244H279.79v1.46h-2.46v1.1h2.46v3.28h-3.66v2.56h20v1.64h3.66v.62h-3.66v6.21h2.09v2.91H282.33v-2.91h-2.09v2.91H264.65v-3h-2.46V255.7h2.46v-5.84h3.65v-3.28h-2.46v-1.1h2.46v-6.29h-3.65V235h2.73v-4.18h-2.73v-3.55Zm-13.22-2.6v-3.34h-1.91v-1h1.91v-7.39h31.44v3.29h4.38v3.18h-4.38v.92h-1.91v1h1.91v3.11h-20v.23Zm0,2.15v-1.13h11.48v1.13Zm3.73,28.89v5.09h2.46V255.7Zm11.31-39.47v3.18h4.37v-3.18Z" transform="translate(-127.52 -147.44)"/><path class="cls-9" d="M332.38,216.28a5.06,5.06,0,0,1,.92,1.41h-3.18a10.08,10.08,0,0,1,.72,2.27h3.38a17.54,17.54,0,0,1,.37,3.37V237.1q0,7-5.29,9.3a9.93,9.93,0,0,1-2,.45q5.38,11.11,5.39,11.31h1.91a26.63,26.63,0,0,1,1.17,2.63H334v.1c.55,1.07,1.07,2.16,1.55,3.28H322.91a24,24,0,0,1-1.82-3.38h1.82a18.3,18.3,0,0,0-1.44-2.63h-1.64q-.22-.14-5.47-10.59h-.1v4h1.82V252h-1.82v9H311v3.1H299.77c-.12,0-.18-.06-.18-.19v-2.91h3.28v-9h1.82v-.44h-1.82v-1.92c0-.94,0-2.21-.1-3.83h-3.28V243.2h3.28V220h-3.28v-2.27h3.28v-1.41Zm-27.79-.37v-1.15h-1.82v-1.54q0-.18.18-.18H323c3.46,0,6.05.57,7.75,1.72h1.55c.36,0,.86.38,1.5,1.15Zm4.3,14.53v9.2h1.81v-9.2Zm5.47-5.84v5.84h1.81v6.74h4.38q2.46,0,2.46-2.91v-7.83c0-1.22-1-1.84-3-1.84Z" transform="translate(-127.52 -147.44)"/><path class="cls-9" d="M369.57,236.36a9.49,9.49,0,0,1,1.41,2.83,25.31,25.31,0,0,1,.45,5.2v.72h-3.28v8.3h-1.47l-.08.92V255h1.45q-.18,1.18-.45,2.46h2.09v.09a6.71,6.71,0,0,1-1.82,3.28h-2.19q-.1.49-2,1.74a15,15,0,0,1-7,1.37h-8.92q-8.5,0-10.59-5.47a13,13,0,0,1-.82-3.47h-1.45c-.06-.83-.09-1.34-.09-1.55h1.46v-3.55h-1.46v-1.92h1.46v-1.46h11.56v1.46h-1.44v1.92h1.44v.27c0,1.13.46,1.81,1.37,2a5.13,5.13,0,0,0,1.64.18h2.83c1.89,0,2.84-.61,2.84-1.82V246a1.85,1.85,0,0,0-.28-.92h3.19V245a2.49,2.49,0,0,0-2-.74H350.2q-7.56,0-9.85-5.55a13.23,13.23,0,0,1-.62-2.38Zm-30-2.48v-2.71h-3.28v-7.46a20.1,20.1,0,0,1,.45-4.11H339a7.88,7.88,0,0,1,.89-2.28H337.7q2.39-4.27,10-4.28h8.75q7.59,0,9.92,4,0,.13.27.27h2c.24,0,.57.76,1,2.28H367.6v.08a15.64,15.64,0,0,1,.45,3.65v7h-3.83v-3.91h-1.45v3.91H355v-3.91h1.47v-.1c0-1-.68-1.57-2-1.74h-4.2q-2.46,0-2.46,2.19v4.38h3.38a1.71,1.71,0,0,0,1.92,1.56h7.48a13.66,13.66,0,0,1,6,1.15Zm27.72.37a8.82,8.82,0,0,1,1.62,1.27H339.61c0-.43-.07-.85-.08-1.27Z" transform="translate(-127.52 -147.44)"/><path class="cls-9" d="M386.13,227.26v2H384.4v1.56h2.73v1.82h13.95V235h-2.74v4.2H402V244H388.05v1.46h-2.46v1.1h2.46v3.28H384.4v2.56h20v1.64H408v.62h-3.65v6.21h2.09v2.91H390.59v-2.91H388.5v2.91H372.91v-3h-2.46V255.7h2.46v-5.84h3.65v-3.28H374.1v-1.1h2.46v-6.29h-3.65V235h2.74v-4.18h-2.74v-3.55Zm-13.22-2.6v-3.34H371v-1h1.91v-7.39h31.45v3.29h4.37v3.18h-4.37v.92h-1.92v1h1.92v3.11h-20v.23Zm0,2.15v-1.13H384.4v1.13Zm3.73,28.89v5.09h2.46V255.7ZM388,216.23v3.18h4.38v-3.18Z" transform="translate(-127.52 -147.44)"/></svg>